<svg width="122" height="122" viewBox="0 0 122 122" fill="none" xmlns="http://www.w3.org/2000/svg">
<circle cx="61" cy="61" r="61" fill="url(#paint0_linear_21_629)"/>
<path d="M33.7051 41.0308C33.7051 35.3111 39.5275 31.4348 44.8044 33.6415L61.1987 40.4972L77.5929 33.6415C82.8698 31.4348 88.6922 35.3111 88.6922 41.0308V56.6476C88.6922 71.8319 76.3829 84.2953 61.1987 84.2953C46.0144 84.2953 33.7051 71.8319 33.7051 56.6476V41.0308Z" fill="white"/>
<path fill-rule="evenodd" clip-rule="evenodd" d="M61.1987 93.2287C46.0144 93.2287 33.7051 80.9194 33.7051 65.7351V56.6476C33.7051 51.2642 39.2038 40.4972 61.1987 40.4972C83.1935 40.4972 88.6922 51.2642 88.6922 56.6476V65.7351C88.6922 80.9194 76.3829 93.2287 61.1987 93.2287Z" fill="white"/>
<path d="M60.6337 48.7041L61.1983 48.9402L61.7629 48.7041L74.2997 43.4608C77.3706 42.1764 80.7596 44.4324 80.7596 47.7622V59.7062V66.6564C80.7596 77.4616 72.0015 86.2206 61.1983 86.2206C50.3951 86.2206 41.6371 77.4616 41.6371 66.6564V59.7062V47.7622C41.6371 44.4324 45.0261 42.1764 48.097 43.4608L60.6337 48.7041Z" stroke="url(#paint1_linear_21_629)" stroke-width="2.92649"/>
<defs>
<linearGradient id="paint0_linear_21_629" x1="17.6205" y1="7.90156" x2="106.75" y2="118.207" gradientUnits="userSpaceOnUse">
<stop stop-color="#2268EF"/>
<stop offset="1" stop-color="#699CFF"/>
</linearGradient>
<linearGradient id="paint1_linear_21_629" x1="36.5542" y1="39.4738" x2="82.2228" y2="92.8437" gradientUnits="userSpaceOnUse">
<stop stop-color="#6397FE"/>
<stop offset="1" stop-color="#276CF0"/>
</linearGradient>
</defs>
</svg>
