<svg width="122" height="122" viewBox="0 0 122 122" fill="none" xmlns="http://www.w3.org/2000/svg">
<circle cx="61" cy="61" r="61" fill="url(#paint0_linear_21_659)"/>
<path d="M84.7172 55.5531C85.4779 55.5531 86.2114 55.6622 86.9177 55.7713L94.2254 46.005C85.1519 39.1577 73.8507 35.093 61.6259 35.093C49.4011 35.093 38.0999 39.1577 29.0264 46.005L61.6259 89.6533L71.1341 76.9134V69.1931C71.1341 61.6638 77.2193 55.5531 84.7172 55.5531ZM91.5088 73.2852V69.1931C91.5088 65.4285 88.4662 62.3731 84.7172 62.3731C80.9683 62.3731 77.9257 65.4285 77.9257 69.1931V73.2852C76.4315 73.2852 75.209 74.5128 75.209 76.0132V86.9253C75.209 88.4257 76.4315 89.6533 77.9257 89.6533H91.5088C93.0029 89.6533 94.2254 88.4257 94.2254 86.9253V76.0132C94.2254 74.5128 93.0029 73.2852 91.5088 73.2852ZM88.7922 73.2852H80.6423V69.1931C80.6423 66.9289 82.4624 65.1011 84.7172 65.1011C86.972 65.1011 88.7922 66.9289 88.7922 69.1931V73.2852Z" fill="white"/>
<defs>
<linearGradient id="paint0_linear_21_659" x1="17.6205" y1="7.90156" x2="106.75" y2="118.207" gradientUnits="userSpaceOnUse">
<stop stop-color="#2268EF"/>
<stop offset="1" stop-color="#699CFF"/>
</linearGradient>
</defs>
</svg>
